solid Exported from Blender-3.4.1
facet normal 0.000000 0.948683 -0.316228
outer loop
vertex 4.000000 4.000000 0.000000
vertex -4.000000 4.000000 0.000000
vertex -5.000000 5.000000 3.000000
endloop
endfacet
facet normal 0.000000 0.948683 -0.316228
outer loop
vertex 4.000000 4.000000 0.000000
vertex -5.000000 5.000000 3.000000
vertex 5.000000 5.000000 3.000000
endloop
endfacet
facet normal 0.000000 -0.948683 -0.316228
outer loop
vertex -4.000000 -4.000000 0.000000
vertex 4.000000 -4.000000 0.000000
vertex 5.000000 -5.000000 3.000000
endloop
endfacet
facet normal 0.000000 -0.948683 -0.316228
outer loop
vertex -4.000000 -4.000000 0.000000
vertex 5.000000 -5.000000 3.000000
vertex -5.000000 -5.000000 3.000000
endloop
endfacet
facet normal 0.948683 0.000000 -0.316228
outer loop
vertex 4.000000 -4.000000 0.000000
vertex 4.000000 4.000000 0.000000
vertex 5.000000 5.000000 3.000000
endloop
endfacet
facet normal 0.948683 0.000000 -0.316228
outer loop
vertex 4.000000 -4.000000 0.000000
vertex 5.000000 5.000000 3.000000
vertex 5.000000 -5.000000 3.000000
endloop
endfacet
facet normal -0.948683 0.000000 -0.316228
outer loop
vertex -4.000000 4.000000 0.000000
vertex -4.000000 -4.000000 0.000000
vertex -5.000000 -5.000000 3.000000
endloop
endfacet
facet normal -0.948683 0.000000 -0.316228
outer loop
vertex -4.000000 4.000000 0.000000
vertex -5.000000 -5.000000 3.000000
vertex -5.000000 5.000000 3.000000
endloop
endfacet
facet normal -0.857493 0.000000 -0.514496
outer loop
vertex 5.000000 5.000000 3.000000
vertex 6.800000 6.800000 0.000000
vertex 6.800000 -6.800000 0.000000
endloop
endfacet
facet normal -0.857493 0.000000 -0.514496
outer loop
vertex 5.000000 5.000000 3.000000
vertex 6.800000 -6.800000 0.000000
vertex 5.000000 -5.000000 3.000000
endloop
endfacet
facet normal 0.000000 -0.857493 -0.514496
outer loop
vertex -5.000000 5.000000 3.000000
vertex -6.800000 6.800000 0.000000
vertex 6.800000 6.800000 0.000000
endloop
endfacet
facet normal 0.000000 -0.857493 -0.514496
outer loop
vertex -5.000000 5.000000 3.000000
vertex 6.800000 6.800000 0.000000
vertex 5.000000 5.000000 3.000000
endloop
endfacet
facet normal 0.857493 0.000000 -0.514496
outer loop
vertex -5.000000 -5.000000 3.000000
vertex -6.800000 -6.800000 0.000000
vertex -6.800000 6.800000 0.000000
endloop
endfacet
facet normal 0.857493 0.000000 -0.514496
outer loop
vertex -5.000000 -5.000000 3.000000
vertex -6.800000 6.800000 0.000000
vertex -5.000000 5.000000 3.000000
endloop
endfacet
facet normal 0.000000 0.857493 -0.514496
outer loop
vertex 5.000000 -5.000000 3.000000
vertex 6.800000 -6.800000 0.000000
vertex -6.800000 -6.800000 0.000000
endloop
endfacet
facet normal 0.000000 0.857493 -0.514496
outer loop
vertex 5.000000 -5.000000 3.000000
vertex -6.800000 -6.800000 0.000000
vertex -5.000000 -5.000000 3.000000
endloop
endfacet
facet normal -1.000000 0.000000 0.000000
outer loop
vertex 6.800000 -6.800000 0.000000
vertex 6.800000 6.800000 0.000000
vertex 6.800000 6.800000 -0.978826
endloop
endfacet
facet normal -1.000000 0.000000 0.000000
outer loop
vertex 6.800000 -6.800000 0.000000
vertex 6.800000 6.800000 -0.978826
vertex 6.800000 -6.800000 -0.978826
endloop
endfacet
facet normal 0.000000 -1.000000 0.000000
outer loop
vertex 4.000000 -4.000000 0.000000
vertex -4.000000 -4.000000 0.000000
vertex -4.000000 -4.000000 -0.978826
endloop
endfacet
facet normal 0.000000 -1.000000 0.000000
outer loop
vertex 4.000000 -4.000000 0.000000
vertex -4.000000 -4.000000 -0.978826
vertex 4.000000 -4.000000 -0.978826
endloop
endfacet
facet normal 0.000000 1.000000 0.000000
outer loop
vertex -4.000000 4.000000 0.000000
vertex 4.000000 4.000000 0.000000
vertex 4.000000 4.000000 -0.978826
endloop
endfacet
facet normal 0.000000 1.000000 0.000000
outer loop
vertex -4.000000 4.000000 0.000000
vertex 4.000000 4.000000 -0.978826
vertex -4.000000 4.000000 -0.978826
endloop
endfacet
facet normal 0.000000 1.000000 0.000000
outer loop
vertex -6.800000 -6.800000 0.000000
vertex 6.800000 -6.800000 0.000000
vertex 6.800000 -6.800000 -0.978826
endloop
endfacet
facet normal 0.000000 1.000000 0.000000
outer loop
vertex -6.800000 -6.800000 0.000000
vertex 6.800000 -6.800000 -0.978826
vertex -6.800000 -6.800000 -0.978826
endloop
endfacet
facet normal 0.000000 0.000000 1.000000
outer loop
vertex -4.000000 4.000000 -0.978826
vertex 4.000000 4.000000 -0.978826
vertex 6.800000 6.800000 -0.978826
endloop
endfacet
facet normal 0.000000 0.000000 1.000000
outer loop
vertex -4.000000 4.000000 -0.978826
vertex 6.800000 6.800000 -0.978826
vertex -6.800000 6.800000 -0.978826
endloop
endfacet
facet normal 0.000000 0.000000 1.000000
outer loop
vertex 4.000000 -4.000000 -0.978826
vertex -4.000000 -4.000000 -0.978826
vertex -6.800000 -6.800000 -0.978826
endloop
endfacet
facet normal 0.000000 0.000000 1.000000
outer loop
vertex 4.000000 -4.000000 -0.978826
vertex -6.800000 -6.800000 -0.978826
vertex 6.800000 -6.800000 -0.978826
endloop
endfacet
facet normal 0.000000 0.000000 1.000000
outer loop
vertex 4.000000 4.000000 -0.978826
vertex 4.000000 -4.000000 -0.978826
vertex 6.800000 -6.800000 -0.978826
endloop
endfacet
facet normal 0.000000 0.000000 1.000000
outer loop
vertex 4.000000 4.000000 -0.978826
vertex 6.800000 -6.800000 -0.978826
vertex 6.800000 6.800000 -0.978826
endloop
endfacet
facet normal 0.000000 0.000000 1.000000
outer loop
vertex -4.000000 -4.000000 -0.978826
vertex -4.000000 4.000000 -0.978826
vertex -6.800000 6.800000 -0.978826
endloop
endfacet
facet normal 0.000000 0.000000 1.000000
outer loop
vertex -4.000000 -4.000000 -0.978826
vertex -6.800000 6.800000 -0.978826
vertex -6.800000 -6.800000 -0.978826
endloop
endfacet
facet normal 1.000000 0.000000 0.000000
outer loop
vertex -6.800000 6.800000 0.000000
vertex -6.800000 -6.800000 0.000000
vertex -6.800000 -6.800000 -0.978826
endloop
endfacet
facet normal 1.000000 0.000000 0.000000
outer loop
vertex -6.800000 6.800000 0.000000
vertex -6.800000 -6.800000 -0.978826
vertex -6.800000 6.800000 -0.978826
endloop
endfacet
facet normal 1.000000 0.000000 0.000000
outer loop
vertex 4.000000 4.000000 0.000000
vertex 4.000000 -4.000000 0.000000
vertex 4.000000 -4.000000 -0.978826
endloop
endfacet
facet normal 1.000000 0.000000 0.000000
outer loop
vertex 4.000000 4.000000 0.000000
vertex 4.000000 -4.000000 -0.978826
vertex 4.000000 4.000000 -0.978826
endloop
endfacet
facet normal -1.000000 0.000000 0.000000
outer loop
vertex -4.000000 -4.000000 0.000000
vertex -4.000000 4.000000 0.000000
vertex -4.000000 4.000000 -0.978826
endloop
endfacet
facet normal -1.000000 0.000000 0.000000
outer loop
vertex -4.000000 -4.000000 0.000000
vertex -4.000000 4.000000 -0.978826
vertex -4.000000 -4.000000 -0.978826
endloop
endfacet
facet normal 0.000000 -1.000000 0.000000
outer loop
vertex 6.800000 6.800000 0.000000
vertex -6.800000 6.800000 0.000000
vertex -6.800000 6.800000 -0.978826
endloop
endfacet
facet normal 0.000000 -1.000000 0.000000
outer loop
vertex 6.800000 6.800000 0.000000
vertex -6.800000 6.800000 -0.978826
vertex 6.800000 6.800000 -0.978826
endloop
endfacet
endsolid Exported from Blender-3.4.1
