%TF.GenerationSoftware,KiCad,Pcbnew,9.0.5*%
%TF.CreationDate,2025-11-18T23:11:48+01:00*%
%TF.ProjectId,LogicInverter,4c6f6769-6349-46e7-9665-727465722e6b,rev?*%
%TF.SameCoordinates,Original*%
%TF.FileFunction,Legend,Top*%
%TF.FilePolarity,Positive*%
%FSLAX46Y46*%
G04 Gerber Fmt 4.6, Leading zero omitted, Abs format (unit mm)*
G04 Created by KiCad (PCBNEW 9.0.5) date 2025-11-18 23:11:48*
%MOMM*%
%LPD*%
G01*
G04 APERTURE LIST*
%ADD10C,0.150000*%
%ADD11C,0.120000*%
G04 APERTURE END LIST*
D10*
X19312095Y-16876819D02*
X19883523Y-16876819D01*
X19597809Y-17876819D02*
X19597809Y-16876819D01*
X20216857Y-17876819D02*
X20216857Y-16876819D01*
X20216857Y-16876819D02*
X20597809Y-16876819D01*
X20597809Y-16876819D02*
X20693047Y-16924438D01*
X20693047Y-16924438D02*
X20740666Y-16972057D01*
X20740666Y-16972057D02*
X20788285Y-17067295D01*
X20788285Y-17067295D02*
X20788285Y-17210152D01*
X20788285Y-17210152D02*
X20740666Y-17305390D01*
X20740666Y-17305390D02*
X20693047Y-17353009D01*
X20693047Y-17353009D02*
X20597809Y-17400628D01*
X20597809Y-17400628D02*
X20216857Y-17400628D01*
X21169238Y-16972057D02*
X21216857Y-16924438D01*
X21216857Y-16924438D02*
X21312095Y-16876819D01*
X21312095Y-16876819D02*
X21550190Y-16876819D01*
X21550190Y-16876819D02*
X21645428Y-16924438D01*
X21645428Y-16924438D02*
X21693047Y-16972057D01*
X21693047Y-16972057D02*
X21740666Y-17067295D01*
X21740666Y-17067295D02*
X21740666Y-17162533D01*
X21740666Y-17162533D02*
X21693047Y-17305390D01*
X21693047Y-17305390D02*
X21121619Y-17876819D01*
X21121619Y-17876819D02*
X21740666Y-17876819D01*
X35075905Y-27474819D02*
X35075905Y-26474819D01*
X35075905Y-26474819D02*
X35314000Y-26474819D01*
X35314000Y-26474819D02*
X35456857Y-26522438D01*
X35456857Y-26522438D02*
X35552095Y-26617676D01*
X35552095Y-26617676D02*
X35599714Y-26712914D01*
X35599714Y-26712914D02*
X35647333Y-26903390D01*
X35647333Y-26903390D02*
X35647333Y-27046247D01*
X35647333Y-27046247D02*
X35599714Y-27236723D01*
X35599714Y-27236723D02*
X35552095Y-27331961D01*
X35552095Y-27331961D02*
X35456857Y-27427200D01*
X35456857Y-27427200D02*
X35314000Y-27474819D01*
X35314000Y-27474819D02*
X35075905Y-27474819D01*
X36599714Y-27474819D02*
X36028286Y-27474819D01*
X36314000Y-27474819D02*
X36314000Y-26474819D01*
X36314000Y-26474819D02*
X36218762Y-26617676D01*
X36218762Y-26617676D02*
X36123524Y-26712914D01*
X36123524Y-26712914D02*
X36028286Y-26760533D01*
X19312095Y-27036819D02*
X19883523Y-27036819D01*
X19597809Y-28036819D02*
X19597809Y-27036819D01*
X20216857Y-28036819D02*
X20216857Y-27036819D01*
X20216857Y-27036819D02*
X20597809Y-27036819D01*
X20597809Y-27036819D02*
X20693047Y-27084438D01*
X20693047Y-27084438D02*
X20740666Y-27132057D01*
X20740666Y-27132057D02*
X20788285Y-27227295D01*
X20788285Y-27227295D02*
X20788285Y-27370152D01*
X20788285Y-27370152D02*
X20740666Y-27465390D01*
X20740666Y-27465390D02*
X20693047Y-27513009D01*
X20693047Y-27513009D02*
X20597809Y-27560628D01*
X20597809Y-27560628D02*
X20216857Y-27560628D01*
X21740666Y-28036819D02*
X21169238Y-28036819D01*
X21454952Y-28036819D02*
X21454952Y-27036819D01*
X21454952Y-27036819D02*
X21359714Y-27179676D01*
X21359714Y-27179676D02*
X21264476Y-27274914D01*
X21264476Y-27274914D02*
X21169238Y-27322533D01*
X34631333Y-18404819D02*
X34298000Y-17928628D01*
X34059905Y-18404819D02*
X34059905Y-17404819D01*
X34059905Y-17404819D02*
X34440857Y-17404819D01*
X34440857Y-17404819D02*
X34536095Y-17452438D01*
X34536095Y-17452438D02*
X34583714Y-17500057D01*
X34583714Y-17500057D02*
X34631333Y-17595295D01*
X34631333Y-17595295D02*
X34631333Y-17738152D01*
X34631333Y-17738152D02*
X34583714Y-17833390D01*
X34583714Y-17833390D02*
X34536095Y-17881009D01*
X34536095Y-17881009D02*
X34440857Y-17928628D01*
X34440857Y-17928628D02*
X34059905Y-17928628D01*
X35583714Y-18404819D02*
X35012286Y-18404819D01*
X35298000Y-18404819D02*
X35298000Y-17404819D01*
X35298000Y-17404819D02*
X35202762Y-17547676D01*
X35202762Y-17547676D02*
X35107524Y-17642914D01*
X35107524Y-17642914D02*
X35012286Y-17690533D01*
D11*
%TO.C,TP2*%
X22824000Y-20320000D02*
G75*
G02*
X18324000Y-20320000I-2250000J0D01*
G01*
X18324000Y-20320000D02*
G75*
G02*
X22824000Y-20320000I2250000J0D01*
G01*
%TO.C,D1*%
X33754000Y-29081000D02*
X33754000Y-29400000D01*
X33754000Y-31560000D02*
X33754000Y-31879000D01*
X33754000Y-29081251D02*
G75*
G02*
X38057591Y-29400000I2060000J-1398749D01*
G01*
X34130670Y-29400000D02*
G75*
G02*
X37497330Y-29400000I1683330J-1080000D01*
G01*
X37497330Y-31560000D02*
G75*
G02*
X34130670Y-31560000I-1683330J1080000D01*
G01*
X38057591Y-31560000D02*
G75*
G02*
X33754000Y-31878749I-2243591J1080000D01*
G01*
%TO.C,TP1*%
X22824000Y-30480000D02*
G75*
G02*
X18324000Y-30480000I-2250000J0D01*
G01*
X18324000Y-30480000D02*
G75*
G02*
X22824000Y-30480000I2250000J0D01*
G01*
%TO.C,R1*%
X31528000Y-18950000D02*
X38068000Y-18950000D01*
X31528000Y-19280000D02*
X31528000Y-18950000D01*
X31528000Y-21360000D02*
X31528000Y-21690000D01*
X31528000Y-21690000D02*
X38068000Y-21690000D01*
X38068000Y-18950000D02*
X38068000Y-19280000D01*
X38068000Y-21690000D02*
X38068000Y-21360000D01*
%TD*%
M02*
