<?xml version="1.0" encoding="UTF-8" standalone="no"?>
<svg
   width="297mm"
   height="210mm"
   viewBox="-44 44 297 210"
   version="1.1"
   id="svg28"
   sodipodi:docname="ChassisCut1.svg"
   inkscape:version="1.4 (86a8ad7, 2024-10-11)"
   xmlns:inkscape="http://www.inkscape.org/namespaces/inkscape"
   xmlns:sodipodi="http://sodipodi.sourceforge.net/DTD/sodipodi-0.dtd"
   xmlns="http://www.w3.org/2000/svg"
   xmlns:svg="http://www.w3.org/2000/svg"
   xmlns:lc="https://librecad.org">
  <defs
     id="defs28" />
  <sodipodi:namedview
     id="namedview28"
     pagecolor="#505050"
     bordercolor="#eeeeee"
     borderopacity="1"
     inkscape:showpageshadow="0"
     inkscape:pageopacity="0"
     inkscape:pagecheckerboard="0"
     inkscape:deskcolor="#505050"
     inkscape:document-units="mm"
     inkscape:zoom="0.71891835"
     inkscape:cx="397.81986"
     inkscape:cy="477.80113"
     inkscape:window-width="1920"
     inkscape:window-height="1009"
     inkscape:window-x="1432"
     inkscape:window-y="1467"
     inkscape:window-maximized="1"
     inkscape:current-layer="svg28" />
  <g
     lc:layername="0"
     lc:is_locked="false"
     lc:is_construction="false"
     fill="none"
     stroke="#000000"
     stroke-width="0.1"
     id="g1"
     transform="rotate(-90,105,148.5)" />
  <g
     lc:layername="cuts"
     lc:is_locked="false"
     lc:is_construction="false"
     fill="none"
     stroke="#000000"
     stroke-width="0.1"
     id="g28"
     transform="rotate(-90,105,148.5)">
    <path
       d="m 180,90 h 30 V 20 h -30 z"
       id="path1" />
    <circle
       cx="10"
       cy="10"
       r="1.5"
       id="circle1" />
    <circle
       cx="200"
       cy="10"
       r="1.5"
       id="circle2" />
    <path
       d="m 180,277 h 30 v -70 h -30 z"
       id="path2" />
    <path
       d="M 0,277 H 30 V 207 H 0 Z"
       id="path3" />
    <circle
       cx="10"
       cy="287"
       r="1.5"
       id="circle3" />
    <circle
       cx="200"
       cy="287"
       r="1.5"
       id="circle4" />
    <line
       x1="210"
       y1="297"
       x2="210"
       y2="0"
       id="line4" />
    <path
       d="M 0,90 H 30 V 20 H 0 Z"
       id="path4" />
    <circle
       cx="87.5"
       cy="272.5"
       r="1.5"
       id="circle5" />
    <circle
       cx="122.5"
       cy="272.5"
       r="1.5"
       id="circle6" />
    <circle
       cx="122.5"
       cy="237.5"
       r="1.5"
       id="circle7" />
    <circle
       cx="87.5"
       cy="237.5"
       r="1.5"
       id="circle8" />
    <circle
       cx="87.5"
       cy="59.5"
       r="1.5"
       id="circle9" />
    <circle
       cx="87.5"
       cy="24.5"
       r="1.5"
       id="circle10" />
    <circle
       cx="122.5"
       cy="24.5"
       r="1.5"
       id="circle11" />
    <circle
       cx="122.5"
       cy="59.5"
       r="1.5"
       id="circle12" />
    <circle
       cx="58.25"
       cy="272.5"
       r="1.5"
       id="circle13" />
    <circle
       cx="151.75"
       cy="272.5"
       r="1.5"
       id="circle14" />
    <circle
       cx="58.25"
       cy="24.5"
       r="1.5"
       id="circle15" />
    <circle
       cx="151.75"
       cy="24.5"
       r="1.5"
       id="circle16" />
    <circle
       cx="36.5"
       cy="223"
       r="1.5"
       id="circle17" />
    <circle
       cx="173.5"
       cy="223"
       r="1.5"
       id="circle18" />
    <circle
       cx="36.5"
       cy="74"
       r="1.5"
       id="circle19" />
    <circle
       cx="173.5"
       cy="74"
       r="1.5"
       id="circle20" />
    <circle
       cx="66"
       cy="199.5"
       r="1.5"
       id="circle21" />
    <circle
       cx="144"
       cy="199.5"
       r="1.5"
       id="circle22" />
    <circle
       cx="66"
       cy="97.5"
       r="1.5"
       id="circle23" />
    <circle
       cx="144"
       cy="97.5"
       r="1.5"
       id="circle24" />
    <circle
       cx="15.5"
       cy="191.5"
       r="1.5"
       id="circle25" />
    <circle
       cx="194.5"
       cy="191.5"
       r="1.5"
       id="circle26" />
    <circle
       cx="15.5"
       cy="105.5"
       r="1.5"
       id="circle27" />
    <circle
       cx="194.5"
       cy="105.5"
       r="1.5"
       id="circle28" />
  </g>
</svg>
