M48
; DRILL file {KiCad 9.0.6} date 2025-12-02T15:58:46+0100
; FORMAT={-:-/ absolute / metric / decimal}
; #@! TF.CreationDate,2025-12-02T15:58:46+01:00
; #@! TF.GenerationSoftware,Kicad,Pcbnew,9.0.6
; #@! TF.FileFunction,Plated,1,2,PTH
FMAT,2
METRIC
; #@! TA.AperFunction,Plated,PTH,ComponentDrill
T1C0.800
; #@! TA.AperFunction,Plated,PTH,ComponentDrill
T2C1.000
%
G90
G05
T1
X45.0Y-64.25
X45.0Y-71.87
X52.25Y-76.25
X52.75Y-65.0
X52.75Y-67.54
X52.75Y-70.08
X52.75Y-72.62
X54.75Y-76.25
X57.75Y-86.25
X57.75Y-93.87
X60.37Y-65.0
X60.37Y-67.54
X60.37Y-70.08
X60.37Y-72.62
X61.0Y-86.25
X61.0Y-93.87
X77.47Y-75.0
X77.47Y-82.62
X79.5Y-93.38
X79.5Y-101.0
X80.0Y-56.5
X80.0Y-64.12
X80.01Y-75.0
X80.01Y-82.62
X82.55Y-75.0
X82.55Y-82.62
X83.75Y-56.5
X83.75Y-64.12
X83.75Y-93.38
X83.75Y-101.0
X85.09Y-75.0
X85.09Y-82.62
X87.63Y-75.0
X87.63Y-82.62
X87.75Y-56.5
X87.75Y-64.12
X87.75Y-93.38
X87.75Y-101.0
X90.17Y-75.0
X90.17Y-82.62
X91.75Y-56.5
X91.75Y-64.12
X91.75Y-93.38
X91.75Y-101.0
X92.71Y-75.0
X92.71Y-82.62
X95.25Y-75.0
X95.25Y-82.62
X100.0Y-77.5
X100.0Y-80.0
X109.97Y-75.0
X109.97Y-82.62
X112.5Y-93.63
X112.5Y-101.25
X112.51Y-75.0
X112.51Y-82.62
X113.5Y-56.5
X113.5Y-64.12
X115.05Y-75.0
X115.05Y-82.62
X116.75Y-93.63
X116.75Y-101.25
X117.5Y-56.5
X117.5Y-64.12
X117.59Y-75.0
X117.59Y-82.62
X120.13Y-75.0
X120.13Y-82.62
X120.75Y-93.63
X120.75Y-101.25
X121.25Y-56.5
X121.25Y-64.12
X122.67Y-75.0
X122.67Y-82.62
X124.75Y-93.63
X124.75Y-101.25
X125.21Y-75.0
X125.21Y-82.62
X125.25Y-56.5
X125.25Y-64.12
X127.75Y-75.0
X127.75Y-82.62
X132.75Y-78.0
X132.75Y-80.5
T2
X49.0Y-67.46
X49.0Y-70.0
X53.0Y-82.0
X55.54Y-82.0
X58.08Y-82.0
X60.62Y-82.0
X65.0Y-62.75
X68.0Y-67.46
X68.0Y-70.0
X68.0Y-74.25
X69.0Y-87.975
X69.0Y-90.515
X70.54Y-67.46
X70.54Y-70.0
X70.54Y-74.25
X70.75Y-62.75
X73.08Y-67.46
X73.08Y-70.0
X73.29Y-62.75
X74.75Y-88.0
X74.75Y-90.54
X80.25Y-88.0
X82.34Y-69.5
X82.79Y-88.0
X84.88Y-69.5
X85.33Y-88.0
X87.42Y-69.5
X87.87Y-88.0
X89.96Y-69.5
X90.41Y-88.0
X92.5Y-69.5
X97.75Y-66.96
X97.75Y-69.5
X101.5Y-87.975
X101.5Y-90.515
X103.0Y-77.5
X103.0Y-80.04
X103.25Y-66.96
X103.25Y-69.5
X107.25Y-88.0
X107.25Y-90.54
X112.5Y-88.0
X115.04Y-88.0
X115.09Y-69.5
X117.58Y-88.0
X117.63Y-69.5
X120.12Y-88.0
X120.17Y-69.5
X122.66Y-88.0
X122.71Y-69.5
X125.25Y-69.5
X130.5Y-66.96
X130.5Y-69.5
X135.75Y-66.96
X135.75Y-69.5
X135.75Y-77.975
X135.75Y-80.515
M30
