%TF.GenerationSoftware,KiCad,Pcbnew,9.0.6*%
%TF.CreationDate,2025-12-02T15:59:10+01:00*%
%TF.ProjectId,tasterPAD,74617374-6572-4504-9144-2e6b69636164,rev?*%
%TF.SameCoordinates,Original*%
%TF.FileFunction,Copper,L2,Bot*%
%TF.FilePolarity,Positive*%
%FSLAX46Y46*%
G04 Gerber Fmt 4.6, Leading zero omitted, Abs format (unit mm)*
G04 Created by KiCad (PCBNEW 9.0.6) date 2025-12-02 15:59:10*
%MOMM*%
%LPD*%
G01*
G04 APERTURE LIST*
G04 Aperture macros list*
%AMRoundRect*
0 Rectangle with rounded corners*
0 $1 Rounding radius*
0 $2 $3 $4 $5 $6 $7 $8 $9 X,Y pos of 4 corners*
0 Add a 4 corners polygon primitive as box body*
4,1,4,$2,$3,$4,$5,$6,$7,$8,$9,$2,$3,0*
0 Add four circle primitives for the rounded corners*
1,1,$1+$1,$2,$3*
1,1,$1+$1,$4,$5*
1,1,$1+$1,$6,$7*
1,1,$1+$1,$8,$9*
0 Add four rect primitives between the rounded corners*
20,1,$1+$1,$2,$3,$4,$5,0*
20,1,$1+$1,$4,$5,$6,$7,0*
20,1,$1+$1,$6,$7,$8,$9,0*
20,1,$1+$1,$8,$9,$2,$3,0*%
G04 Aperture macros list end*
%TA.AperFunction,ComponentPad*%
%ADD10R,1.700000X1.700000*%
%TD*%
%TA.AperFunction,ComponentPad*%
%ADD11C,1.700000*%
%TD*%
%TA.AperFunction,ComponentPad*%
%ADD12C,1.600000*%
%TD*%
%TA.AperFunction,ComponentPad*%
%ADD13RoundRect,0.250000X-0.550000X0.950000X-0.550000X-0.950000X0.550000X-0.950000X0.550000X0.950000X0*%
%TD*%
%TA.AperFunction,ComponentPad*%
%ADD14O,1.600000X2.400000*%
%TD*%
%TA.AperFunction,ComponentPad*%
%ADD15RoundRect,0.250000X-0.950000X-0.550000X0.950000X-0.550000X0.950000X0.550000X-0.950000X0.550000X0*%
%TD*%
%TA.AperFunction,ComponentPad*%
%ADD16O,2.400000X1.600000*%
%TD*%
%TA.AperFunction,Conductor*%
%ADD17C,0.500000*%
%TD*%
G04 APERTURE END LIST*
D10*
%TO.P,J3,1,Pin_1*%
%TO.N,/CLK*%
X68000000Y-70000000D03*
D11*
%TO.P,J3,2,Pin_2*%
%TO.N,/SDA*%
X68000000Y-67460000D03*
%TO.P,J3,3,Pin_3*%
%TO.N,/RESET*%
X70540000Y-70000000D03*
%TO.P,J3,4,Pin_4*%
%TO.N,GND*%
X70540000Y-67460000D03*
%TO.P,J3,5,Pin_5*%
%TO.N,/SCL*%
X73080000Y-70000000D03*
%TO.P,J3,6,Pin_6*%
%TO.N,VCC*%
X73080000Y-67460000D03*
%TD*%
D12*
%TO.P,R15,1*%
%TO.N,VCC*%
X117500000Y-56500000D03*
%TO.P,R15,2*%
%TO.N,/IN15*%
X117500000Y-64120000D03*
%TD*%
%TO.P,C1,1*%
%TO.N,GND*%
X100000000Y-77500000D03*
%TO.P,C1,2*%
%TO.N,VCC*%
X100000000Y-80000000D03*
%TD*%
D10*
%TO.P,SB7,1*%
%TO.N,/RESET*%
X65000000Y-62750000D03*
%TD*%
%TO.P,SB3,1*%
%TO.N,/PL*%
X135750000Y-69500000D03*
D11*
%TO.P,SB3,2*%
%TO.N,/CLK*%
X135750000Y-66960000D03*
%TD*%
D10*
%TO.P,B3,1*%
%TO.N,GND*%
X97750000Y-69500000D03*
D11*
%TO.P,B3,2*%
%TO.N,VCC*%
X97750000Y-66960000D03*
%TD*%
D10*
%TO.P,B5,1*%
%TO.N,GND*%
X70750000Y-62750000D03*
D11*
%TO.P,B5,2*%
%TO.N,VCC*%
X73290000Y-62750000D03*
%TD*%
D12*
%TO.P,R7,1*%
%TO.N,VCC*%
X83750000Y-56500000D03*
%TO.P,R7,2*%
%TO.N,/IN07*%
X83750000Y-64120000D03*
%TD*%
D10*
%TO.P,J6,1,Pin_1*%
%TO.N,GND*%
X125250000Y-69500000D03*
D11*
%TO.P,J6,2,Pin_2*%
%TO.N,/IN13*%
X122710000Y-69500000D03*
%TO.P,J6,3,Pin_3*%
%TO.N,/IN14*%
X120170000Y-69500000D03*
%TO.P,J6,4,Pin_4*%
%TO.N,/IN15*%
X117630000Y-69500000D03*
%TO.P,J6,5,Pin_5*%
%TO.N,/IN16*%
X115090000Y-69500000D03*
%TD*%
D12*
%TO.P,R4,1*%
%TO.N,VCC*%
X91750000Y-101000000D03*
%TO.P,R4,2*%
%TO.N,/IN04*%
X91750000Y-93380000D03*
%TD*%
%TO.P,R14,1*%
%TO.N,VCC*%
X121250000Y-56500000D03*
%TO.P,R14,2*%
%TO.N,/IN14*%
X121250000Y-64120000D03*
%TD*%
D10*
%TO.P,SB1,1*%
%TO.N,/PL*%
X103250000Y-69500000D03*
D11*
%TO.P,SB1,2*%
%TO.N,/CLK*%
X103250000Y-66960000D03*
%TD*%
D12*
%TO.P,C3,1*%
%TO.N,GND*%
X52250000Y-76250000D03*
%TO.P,C3,2*%
%TO.N,VCC*%
X54750000Y-76250000D03*
%TD*%
D10*
%TO.P,J1,1,Pin_1*%
%TO.N,GND*%
X53000000Y-82000000D03*
D11*
%TO.P,J1,2,Pin_2*%
%TO.N,VCC*%
X55540000Y-82000000D03*
%TO.P,J1,3,Pin_3*%
%TO.N,/SDA*%
X58080000Y-82000000D03*
%TO.P,J1,4,Pin_4*%
%TO.N,/SCL*%
X60620000Y-82000000D03*
%TD*%
D12*
%TO.P,R19,1*%
%TO.N,/SCL*%
X61000000Y-86250000D03*
%TO.P,R19,2*%
%TO.N,VCC*%
X61000000Y-93870000D03*
%TD*%
D10*
%TO.P,J5,1,Pin_1*%
%TO.N,GND*%
X112500000Y-88000000D03*
D11*
%TO.P,J5,2,Pin_2*%
%TO.N,/IN09*%
X115040000Y-88000000D03*
%TO.P,J5,3,Pin_3*%
%TO.N,/IN10*%
X117580000Y-88000000D03*
%TO.P,J5,4,Pin_4*%
%TO.N,/IN11*%
X120120000Y-88000000D03*
%TO.P,J5,5,Pin_5*%
%TO.N,/IN12*%
X122660000Y-88000000D03*
%TD*%
D12*
%TO.P,R12,1*%
%TO.N,VCC*%
X124750000Y-101250000D03*
%TO.P,R12,2*%
%TO.N,/IN12*%
X124750000Y-93630000D03*
%TD*%
%TO.P,R17,1*%
%TO.N,/RESET*%
X45000000Y-64250000D03*
%TO.P,R17,2*%
%TO.N,VCC*%
X45000000Y-71870000D03*
%TD*%
%TO.P,R10,1*%
%TO.N,VCC*%
X116750000Y-101250000D03*
%TO.P,R10,2*%
%TO.N,/IN10*%
X116750000Y-93630000D03*
%TD*%
D10*
%TO.P,B5,1*%
%TO.N,GND*%
X107250000Y-88000000D03*
D11*
%TO.P,B5,2*%
%TO.N,VCC*%
X107250000Y-90540000D03*
%TD*%
D13*
%TO.P,U1,1,~{PL}*%
%TO.N,/PL*%
X95250000Y-75000000D03*
D14*
%TO.P,U1,2,CP*%
%TO.N,/CLK*%
X92710000Y-75000000D03*
%TO.P,U1,3,D4*%
%TO.N,/IN05*%
X90170000Y-75000000D03*
%TO.P,U1,4,D5*%
%TO.N,/IN06*%
X87630000Y-75000000D03*
%TO.P,U1,5,D6*%
%TO.N,/IN07*%
X85090000Y-75000000D03*
%TO.P,U1,6,D7*%
%TO.N,/IN08*%
X82550000Y-75000000D03*
%TO.P,U1,7,~{Q7}*%
%TO.N,unconnected-(U1-~{Q7}-Pad7)*%
X80010000Y-75000000D03*
%TO.P,U1,8,GND*%
%TO.N,GND*%
X77470000Y-75000000D03*
%TO.P,U1,9,Q7*%
%TO.N,/Q7*%
X77470000Y-82620000D03*
%TO.P,U1,10,DS*%
%TO.N,/CASCADE*%
X80010000Y-82620000D03*
%TO.P,U1,11,D0*%
%TO.N,/IN01*%
X82550000Y-82620000D03*
%TO.P,U1,12,D1*%
%TO.N,/IN02*%
X85090000Y-82620000D03*
%TO.P,U1,13,D2*%
%TO.N,/IN03*%
X87630000Y-82620000D03*
%TO.P,U1,14,D3*%
%TO.N,/IN04*%
X90170000Y-82620000D03*
%TO.P,U1,15,~{CE}*%
%TO.N,GND*%
X92710000Y-82620000D03*
%TO.P,U1,16,VCC*%
%TO.N,VCC*%
X95250000Y-82620000D03*
%TD*%
D10*
%TO.P,SB2,1*%
%TO.N,/Q7*%
X69000000Y-87975000D03*
D11*
%TO.P,SB2,2*%
%TO.N,/CASCADE*%
X69000000Y-90515000D03*
%TD*%
D12*
%TO.P,R3,1*%
%TO.N,VCC*%
X87750000Y-101000000D03*
%TO.P,R3,2*%
%TO.N,/IN03*%
X87750000Y-93380000D03*
%TD*%
D10*
%TO.P,B6,1*%
%TO.N,GND*%
X130500000Y-69500000D03*
D11*
%TO.P,B6,2*%
%TO.N,VCC*%
X130500000Y-66960000D03*
%TD*%
D10*
%TO.P,SB6,1*%
%TO.N,/CLK*%
X68000000Y-74250000D03*
D11*
%TO.P,SB6,2*%
%TO.N,/RESET*%
X70540000Y-74250000D03*
%TD*%
D12*
%TO.P,R11,1*%
%TO.N,VCC*%
X120750000Y-101250000D03*
%TO.P,R11,2*%
%TO.N,/IN11*%
X120750000Y-93630000D03*
%TD*%
%TO.P,R8,1*%
%TO.N,VCC*%
X80000000Y-56500000D03*
%TO.P,R8,2*%
%TO.N,/IN08*%
X80000000Y-64120000D03*
%TD*%
%TO.P,R6,1*%
%TO.N,VCC*%
X87750000Y-56500000D03*
%TO.P,R6,2*%
%TO.N,/IN06*%
X87750000Y-64120000D03*
%TD*%
D10*
%TO.P,SB4,1*%
%TO.N,/CASCADE*%
X101500000Y-87975000D03*
D11*
%TO.P,SB4,2*%
%TO.N,GND*%
X101500000Y-90515000D03*
%TD*%
D12*
%TO.P,R1,1*%
%TO.N,VCC*%
X79500000Y-101000000D03*
%TO.P,R1,2*%
%TO.N,/IN01*%
X79500000Y-93380000D03*
%TD*%
D10*
%TO.P,B2,1*%
%TO.N,GND*%
X74750000Y-88000000D03*
D11*
%TO.P,B2,2*%
%TO.N,VCC*%
X74750000Y-90540000D03*
%TD*%
D10*
%TO.P,B4,1*%
%TO.N,GND*%
X135750000Y-77975000D03*
D11*
%TO.P,B4,2*%
%TO.N,VCC*%
X135750000Y-80515000D03*
%TD*%
D12*
%TO.P,R5,1*%
%TO.N,VCC*%
X91750000Y-56500000D03*
%TO.P,R5,2*%
%TO.N,/IN05*%
X91750000Y-64120000D03*
%TD*%
%TO.P,R16,1*%
%TO.N,VCC*%
X113500000Y-56500000D03*
%TO.P,R16,2*%
%TO.N,/IN16*%
X113500000Y-64120000D03*
%TD*%
%TO.P,R2,1*%
%TO.N,VCC*%
X83750000Y-101000000D03*
%TO.P,R2,2*%
%TO.N,/IN02*%
X83750000Y-93380000D03*
%TD*%
%TO.P,R18,1*%
%TO.N,/SDA*%
X57750000Y-86250000D03*
%TO.P,R18,2*%
%TO.N,VCC*%
X57750000Y-93870000D03*
%TD*%
D10*
%TO.P,J4,1,Pin_1*%
%TO.N,GND*%
X92500000Y-69500000D03*
D11*
%TO.P,J4,2,Pin_2*%
%TO.N,/IN05*%
X89960000Y-69500000D03*
%TO.P,J4,3,Pin_3*%
%TO.N,/IN06*%
X87420000Y-69500000D03*
%TO.P,J4,4,Pin_4*%
%TO.N,/IN07*%
X84880000Y-69500000D03*
%TO.P,J4,5,Pin_5*%
%TO.N,/IN08*%
X82340000Y-69500000D03*
%TD*%
D12*
%TO.P,R13,1*%
%TO.N,VCC*%
X125250000Y-56500000D03*
%TO.P,R13,2*%
%TO.N,/IN13*%
X125250000Y-64120000D03*
%TD*%
D10*
%TO.P,B1,1*%
%TO.N,GND*%
X103000000Y-77500000D03*
D11*
%TO.P,B1,2*%
%TO.N,VCC*%
X103000000Y-80040000D03*
%TD*%
D10*
%TO.P,J2,1,Pin_1*%
%TO.N,GND*%
X80250000Y-88000000D03*
D11*
%TO.P,J2,2,Pin_2*%
%TO.N,/IN01*%
X82790000Y-88000000D03*
%TO.P,J2,3,Pin_3*%
%TO.N,/IN02*%
X85330000Y-88000000D03*
%TO.P,J2,4,Pin_4*%
%TO.N,/IN03*%
X87870000Y-88000000D03*
%TO.P,J2,5,Pin_5*%
%TO.N,/IN04*%
X90410000Y-88000000D03*
%TD*%
D12*
%TO.P,C2,1*%
%TO.N,GND*%
X132750000Y-78000000D03*
%TO.P,C2,2*%
%TO.N,VCC*%
X132750000Y-80500000D03*
%TD*%
D10*
%TO.P,SB5,1*%
%TO.N,/PL*%
X49000000Y-70000000D03*
D11*
%TO.P,SB5,2*%
%TO.N,/Q7*%
X49000000Y-67460000D03*
%TD*%
D13*
%TO.P,U2,1,~{PL}*%
%TO.N,/PL*%
X127750000Y-75000000D03*
D14*
%TO.P,U2,2,CP*%
%TO.N,/CLK*%
X125210000Y-75000000D03*
%TO.P,U2,3,D4*%
%TO.N,/IN13*%
X122670000Y-75000000D03*
%TO.P,U2,4,D5*%
%TO.N,/IN14*%
X120130000Y-75000000D03*
%TO.P,U2,5,D6*%
%TO.N,/IN15*%
X117590000Y-75000000D03*
%TO.P,U2,6,D7*%
%TO.N,/IN16*%
X115050000Y-75000000D03*
%TO.P,U2,7,~{Q7}*%
%TO.N,unconnected-(U2-~{Q7}-Pad7)*%
X112510000Y-75000000D03*
%TO.P,U2,8,GND*%
%TO.N,GND*%
X109970000Y-75000000D03*
%TO.P,U2,9,Q7*%
%TO.N,/CASCADE*%
X109970000Y-82620000D03*
%TO.P,U2,10,DS*%
%TO.N,GND*%
X112510000Y-82620000D03*
%TO.P,U2,11,D0*%
%TO.N,/IN09*%
X115050000Y-82620000D03*
%TO.P,U2,12,D1*%
%TO.N,/IN10*%
X117590000Y-82620000D03*
%TO.P,U2,13,D2*%
%TO.N,/IN11*%
X120130000Y-82620000D03*
%TO.P,U2,14,D3*%
%TO.N,/IN12*%
X122670000Y-82620000D03*
%TO.P,U2,15,~{CE}*%
%TO.N,GND*%
X125210000Y-82620000D03*
%TO.P,U2,16,VCC*%
%TO.N,VCC*%
X127750000Y-82620000D03*
%TD*%
D15*
%TO.P,U3,1,~{RESET}/PB5*%
%TO.N,/RESET*%
X52750000Y-65000000D03*
D16*
%TO.P,U3,2,PB3*%
%TO.N,/Q7*%
X52750000Y-67540000D03*
%TO.P,U3,3,PB4*%
%TO.N,/PL*%
X52750000Y-70080000D03*
%TO.P,U3,4,GND*%
%TO.N,GND*%
X52750000Y-72620000D03*
%TO.P,U3,5,PB0*%
%TO.N,/SCL*%
X60370000Y-72620000D03*
%TO.P,U3,6,PB1*%
%TO.N,/CLK*%
X60370000Y-70080000D03*
%TO.P,U3,7,PB2*%
%TO.N,/SDA*%
X60370000Y-67540000D03*
%TO.P,U3,8,VCC*%
%TO.N,VCC*%
X60370000Y-65000000D03*
%TD*%
D12*
%TO.P,R9,1*%
%TO.N,VCC*%
X112500000Y-101250000D03*
%TO.P,R9,2*%
%TO.N,/IN09*%
X112500000Y-93630000D03*
%TD*%
D17*
%TO.N,GND*%
X92500000Y-69440000D02*
X97725000Y-69440000D01*
X125250000Y-69465000D02*
X130475000Y-69465000D01*
X97725000Y-69440000D02*
X97750000Y-69465000D01*
X52940000Y-76820000D02*
X52250000Y-76130000D01*
X125210000Y-82620000D02*
X125210000Y-82142291D01*
X100000000Y-77500000D02*
X96930000Y-77500000D01*
X112500000Y-82550000D02*
X112500000Y-84250000D01*
X135725000Y-78000000D02*
X135750000Y-77975000D01*
X105339000Y-88081000D02*
X102905000Y-90515000D01*
X109970000Y-76700000D02*
X111270000Y-78000000D01*
X112500000Y-84250000D02*
X110721000Y-86029000D01*
X80250000Y-87880000D02*
X80000000Y-87880000D01*
X129352291Y-78000000D02*
X132750000Y-78000000D01*
X110721000Y-86029000D02*
X105339000Y-86029000D01*
X111270000Y-78000000D02*
X129352291Y-78000000D01*
X125210000Y-82142291D02*
X129352291Y-78000000D01*
X132750000Y-78000000D02*
X135725000Y-78000000D01*
X79070000Y-77500000D02*
X96930000Y-77500000D01*
X77470000Y-75900000D02*
X79070000Y-77500000D01*
X102905000Y-90515000D02*
X101500000Y-90515000D01*
X96930000Y-77500000D02*
X92710000Y-81720000D01*
X52250000Y-76130000D02*
X52250000Y-73000000D01*
X109970000Y-75000000D02*
X109970000Y-76700000D01*
X100000000Y-77440000D02*
X103000000Y-77440000D01*
X105339000Y-86029000D02*
X105339000Y-88081000D01*
X52250000Y-73000000D02*
X52750000Y-72500000D01*
X52940000Y-81880000D02*
X52940000Y-76820000D01*
X70540000Y-67340000D02*
X70540000Y-62840000D01*
X112500000Y-88000000D02*
X107250000Y-88000000D01*
X79975000Y-87855000D02*
X74750000Y-87855000D01*
X80000000Y-87880000D02*
X79975000Y-87855000D01*
X130475000Y-69465000D02*
X130500000Y-69490000D01*
X92710000Y-81720000D02*
X92710000Y-82620000D01*
X70540000Y-62840000D02*
X70750000Y-62630000D01*
X77470000Y-75000000D02*
X77470000Y-75900000D01*
%TO.N,VCC*%
X87750000Y-101000000D02*
X91750000Y-101000000D01*
X94250000Y-63460000D02*
X97750000Y-66960000D01*
X87750000Y-56440000D02*
X91750000Y-56440000D01*
X91750000Y-56500000D02*
X94250000Y-59000000D01*
X127132500Y-58382500D02*
X127132500Y-63617500D01*
X61000000Y-93750000D02*
X57750000Y-93750000D01*
X97870000Y-80000000D02*
X95250000Y-82620000D01*
X111250000Y-101250000D02*
X110000000Y-100000000D01*
X80000000Y-56440000D02*
X83750000Y-56440000D01*
X102960000Y-79940000D02*
X103000000Y-79980000D01*
X55480000Y-81880000D02*
X55480000Y-76860000D01*
X55001000Y-69193291D02*
X55001000Y-75879000D01*
X121250000Y-56320000D02*
X117500000Y-56320000D01*
X57750000Y-93750000D02*
X55480000Y-91480000D01*
X112500000Y-101250000D02*
X111250000Y-101250000D01*
X110000000Y-100000000D02*
X110000000Y-93290000D01*
X79500000Y-100940000D02*
X78250000Y-100940000D01*
X113500000Y-56320000D02*
X117500000Y-56320000D01*
X55001000Y-75879000D02*
X54750000Y-76130000D01*
X59314291Y-64880000D02*
X55001000Y-69193291D01*
X55480000Y-91480000D02*
X45000000Y-81000000D01*
X125250000Y-56320000D02*
X121250000Y-56320000D01*
X94250000Y-59000000D02*
X94250000Y-63460000D01*
X127750000Y-82620000D02*
X129870000Y-80500000D01*
X132750000Y-80500000D02*
X135735000Y-80500000D01*
X129870000Y-80500000D02*
X132750000Y-80500000D01*
X77000000Y-92645000D02*
X74750000Y-90395000D01*
X55480000Y-91480000D02*
X55480000Y-81880000D01*
X73080000Y-67340000D02*
X73080000Y-62840000D01*
X73080000Y-62840000D02*
X73290000Y-62630000D01*
X45000000Y-81000000D02*
X45000000Y-71940000D01*
X100000000Y-79940000D02*
X102960000Y-79940000D01*
X83750000Y-101000000D02*
X87750000Y-101000000D01*
X110000000Y-93290000D02*
X107250000Y-90540000D01*
X135735000Y-80500000D02*
X135750000Y-80515000D01*
X78250000Y-100940000D02*
X77000000Y-99690000D01*
X116750000Y-101250000D02*
X120750000Y-101250000D01*
X79500000Y-101000000D02*
X83750000Y-101000000D01*
X100000000Y-80000000D02*
X97870000Y-80000000D01*
X60370000Y-64880000D02*
X59314291Y-64880000D01*
X77000000Y-99690000D02*
X77000000Y-92645000D01*
X127132500Y-63617500D02*
X130500000Y-66985000D01*
X120750000Y-101250000D02*
X124750000Y-101250000D01*
X112500000Y-101250000D02*
X116750000Y-101250000D01*
X83750000Y-56440000D02*
X87750000Y-56440000D01*
X125250000Y-56500000D02*
X127132500Y-58382500D01*
X55480000Y-76860000D02*
X54750000Y-76130000D01*
%TO.N,/SCL*%
X60560000Y-81880000D02*
X60560000Y-76250000D01*
X61000000Y-86130000D02*
X61000000Y-82320000D01*
X73080000Y-70000000D02*
X73080000Y-74398420D01*
X73080000Y-74398420D02*
X71228420Y-76250000D01*
X60560000Y-76250000D02*
X60560000Y-72690000D01*
X61000000Y-82320000D02*
X60560000Y-81880000D01*
X60560000Y-72690000D02*
X60370000Y-72500000D01*
X71228420Y-76250000D02*
X60560000Y-76250000D01*
%TO.N,/SDA*%
X57750000Y-82150000D02*
X58020000Y-81880000D01*
X58020000Y-68070000D02*
X58670000Y-67420000D01*
X57750000Y-86130000D02*
X57750000Y-82150000D01*
X58020000Y-81880000D02*
X58020000Y-68070000D01*
X60370000Y-67420000D02*
X67920000Y-67420000D01*
X58670000Y-67420000D02*
X60370000Y-67420000D01*
%TO.N,/IN04*%
X90410000Y-88000000D02*
X90410000Y-82860000D01*
X90410000Y-82860000D02*
X90170000Y-82620000D01*
X91750000Y-93320000D02*
X90500000Y-92070000D01*
X90500000Y-92070000D02*
X90500000Y-91440000D01*
X90410000Y-91350000D02*
X90410000Y-87940000D01*
X90500000Y-91440000D02*
X90410000Y-91350000D01*
%TO.N,/IN03*%
X87750000Y-93320000D02*
X87750000Y-88060000D01*
X87870000Y-88000000D02*
X87870000Y-82860000D01*
X87750000Y-88060000D02*
X87870000Y-87940000D01*
X87870000Y-82860000D02*
X87630000Y-82620000D01*
%TO.N,/IN02*%
X85330000Y-88000000D02*
X85330000Y-82860000D01*
X85330000Y-82860000D02*
X85090000Y-82620000D01*
X85330000Y-91740000D02*
X85330000Y-87940000D01*
X83750000Y-93320000D02*
X85330000Y-91740000D01*
%TO.N,/IN01*%
X82790000Y-82860000D02*
X82550000Y-82620000D01*
X82790000Y-90030000D02*
X82790000Y-87940000D01*
X79500000Y-93320000D02*
X82790000Y-90030000D01*
X82790000Y-88000000D02*
X82790000Y-82860000D01*
%TO.N,/CLK*%
X132099000Y-71401000D02*
X133849000Y-69651000D01*
X68000000Y-70000000D02*
X68000000Y-74250000D01*
X94609000Y-71401000D02*
X99599000Y-71401000D01*
X99599000Y-71401000D02*
X101349000Y-69651000D01*
X92710000Y-75000000D02*
X92710000Y-73300000D01*
X60370000Y-69960000D02*
X67920000Y-69960000D01*
X101988000Y-66960000D02*
X103250000Y-66960000D01*
X125210000Y-74152108D02*
X127961108Y-71401000D01*
X125210000Y-75000000D02*
X125210000Y-74152108D01*
X133849000Y-67599000D02*
X134488000Y-66960000D01*
X101349000Y-69651000D02*
X101349000Y-67599000D01*
X133849000Y-69651000D02*
X133849000Y-67599000D01*
X134488000Y-66960000D02*
X135750000Y-66960000D01*
X92710000Y-73300000D02*
X94609000Y-71401000D01*
X101349000Y-67599000D02*
X101988000Y-66960000D01*
X127961108Y-71401000D02*
X132099000Y-71401000D01*
%TO.N,/RESET*%
X70540000Y-70000000D02*
X70540000Y-74250000D01*
X52750000Y-65000000D02*
X45750000Y-65000000D01*
X52750000Y-65000000D02*
X55000000Y-62750000D01*
X55000000Y-62750000D02*
X65000000Y-62750000D01*
X45750000Y-65000000D02*
X45000000Y-64250000D01*
X45560000Y-64880000D02*
X45000000Y-64320000D01*
%TO.N,/IN08*%
X82550000Y-75000000D02*
X82550000Y-74450000D01*
X82250000Y-66370000D02*
X82250000Y-67250000D01*
X82250000Y-67250000D02*
X82340000Y-67340000D01*
X82340000Y-74240000D02*
X82340000Y-69500000D01*
X80000000Y-64120000D02*
X82250000Y-66370000D01*
X82340000Y-67340000D02*
X82340000Y-69500000D01*
X82550000Y-74450000D02*
X82340000Y-74240000D01*
%TO.N,/IN07*%
X85090000Y-69710000D02*
X84880000Y-69500000D01*
X84880000Y-65250000D02*
X83750000Y-64120000D01*
X84880000Y-69500000D02*
X84880000Y-65250000D01*
X85090000Y-75000000D02*
X85090000Y-69710000D01*
%TO.N,/IN05*%
X90170000Y-75000000D02*
X90170000Y-69710000D01*
X89960000Y-69500000D02*
X89960000Y-65910000D01*
X90170000Y-69710000D02*
X89960000Y-69500000D01*
X89960000Y-65910000D02*
X91750000Y-64120000D01*
%TO.N,/IN06*%
X87630000Y-69710000D02*
X87420000Y-69500000D01*
X87630000Y-75000000D02*
X87630000Y-69710000D01*
X87420000Y-69500000D02*
X87420000Y-64450000D01*
X87420000Y-64450000D02*
X87750000Y-64120000D01*
%TO.N,/IN12*%
X122750000Y-90250000D02*
X122660000Y-90160000D01*
X122660000Y-88000000D02*
X122660000Y-87910000D01*
X122670000Y-87900000D02*
X122670000Y-82620000D01*
X122750000Y-91630000D02*
X122750000Y-90250000D01*
X122660000Y-87910000D02*
X122670000Y-87900000D01*
X124750000Y-93630000D02*
X122750000Y-91630000D01*
X122660000Y-90160000D02*
X122660000Y-88000000D01*
%TO.N,/IN09*%
X115040000Y-88000000D02*
X115040000Y-82630000D01*
X115040000Y-91090000D02*
X115040000Y-88000000D01*
X112500000Y-93630000D02*
X115040000Y-91090000D01*
X115040000Y-82630000D02*
X115050000Y-82620000D01*
%TO.N,/IN10*%
X117580000Y-88000000D02*
X117580000Y-82630000D01*
X117580000Y-92800000D02*
X116750000Y-93630000D01*
X117580000Y-88000000D02*
X117580000Y-92800000D01*
X117580000Y-82630000D02*
X117590000Y-82620000D01*
%TO.N,/IN11*%
X120120000Y-88000000D02*
X120120000Y-93000000D01*
X120120000Y-82630000D02*
X120130000Y-82620000D01*
X120120000Y-93000000D02*
X120750000Y-93630000D01*
X120120000Y-88000000D02*
X120120000Y-82630000D01*
%TO.N,/IN16*%
X115050000Y-69540000D02*
X115090000Y-69500000D01*
X115050000Y-75000000D02*
X115050000Y-69540000D01*
X113500000Y-64120000D02*
X115000000Y-65620000D01*
X115000000Y-66500000D02*
X115090000Y-66590000D01*
X115000000Y-65620000D02*
X115000000Y-66500000D01*
X115090000Y-66590000D02*
X115090000Y-69500000D01*
%TO.N,/IN13*%
X122710000Y-69500000D02*
X122710000Y-66660000D01*
X122670000Y-69540000D02*
X122710000Y-69500000D01*
X122710000Y-66660000D02*
X125250000Y-64120000D01*
X122670000Y-75000000D02*
X122670000Y-69540000D01*
%TO.N,/IN14*%
X120170000Y-69500000D02*
X120170000Y-65200000D01*
X120170000Y-65200000D02*
X121250000Y-64120000D01*
X120130000Y-75000000D02*
X120130000Y-69540000D01*
X120130000Y-69540000D02*
X120170000Y-69500000D01*
%TO.N,/IN15*%
X117630000Y-64250000D02*
X117500000Y-64120000D01*
X117630000Y-69500000D02*
X117630000Y-64250000D01*
X117590000Y-75000000D02*
X117590000Y-69540000D01*
X117590000Y-69540000D02*
X117630000Y-69500000D01*
%TO.N,/Q7*%
X75292000Y-84798000D02*
X72177000Y-84798000D01*
X77470000Y-82620000D02*
X75292000Y-84798000D01*
X72177000Y-84798000D02*
X69000000Y-87975000D01*
X52750000Y-67420000D02*
X49080000Y-67420000D01*
%TO.N,/PL*%
X135750000Y-69891892D02*
X135750000Y-69500000D01*
X95250000Y-75000000D02*
X95250000Y-73452000D01*
X52750000Y-69960000D02*
X49080000Y-69960000D01*
X101398000Y-72702000D02*
X103250000Y-70850000D01*
X95250000Y-73452000D02*
X96000000Y-72702000D01*
X127750000Y-75000000D02*
X127750000Y-73452000D01*
X103250000Y-70850000D02*
X103250000Y-69500000D01*
X132939892Y-72702000D02*
X135750000Y-69891892D01*
X128500000Y-72702000D02*
X132939892Y-72702000D01*
X127750000Y-73452000D02*
X128500000Y-72702000D01*
X96000000Y-72702000D02*
X101398000Y-72702000D01*
%TO.N,/CASCADE*%
X78231000Y-86099000D02*
X72849000Y-86099000D01*
X70485000Y-90515000D02*
X69000000Y-90515000D01*
X72849000Y-88151000D02*
X70485000Y-90515000D01*
X80010000Y-84320000D02*
X78231000Y-86099000D01*
X80010000Y-82620000D02*
X80010000Y-84320000D01*
X104747000Y-84728000D02*
X101500000Y-87975000D01*
X72849000Y-86099000D02*
X72849000Y-88151000D01*
X109970000Y-84508000D02*
X109750000Y-84728000D01*
X109970000Y-82620000D02*
X109970000Y-84508000D01*
X109750000Y-84728000D02*
X104747000Y-84728000D01*
%TD*%
M02*
